<?xml version="1.0" encoding="UTF-8" standalone="no"?>
<svg
   xmlns:dc="http://purl.org/dc/elements/1.1/"
   xmlns:cc="http://creativecommons.org/ns#"
   xmlns:rdf="http://www.w3.org/1999/02/22-rdf-syntax-ns#"
   xmlns:svg="http://www.w3.org/2000/svg"
   xmlns="http://www.w3.org/2000/svg"
   xmlns:sodipodi="http://sodipodi.sourceforge.net/DTD/sodipodi-0.dtd"
   xmlns:inkscape="http://www.inkscape.org/namespaces/inkscape"
   version="1.1"
   id="svg2"
   xml:space="preserve"
   width="2560"
   height="1324"
   viewBox="0 0 2560 1324"
   sodipodi:docname="gauge-simple.svg"
   inkscape:version="1.0.2 (e86c870879, 2021-01-15)"><metadata
     id="metadata8"><rdf:RDF><cc:Work
         rdf:about=""><dc:format>image/svg+xml</dc:format><dc:type
           rdf:resource="http://purl.org/dc/dcmitype/StillImage" /><dc:title></dc:title></cc:Work></rdf:RDF></metadata><defs
     id="defs6"><clipPath
       clipPathUnits="userSpaceOnUse"
       id="clipPath18"><path
         d="M 0,1920 H 1920 V 0 H 0 Z"
         id="path16" /></clipPath></defs><sodipodi:namedview
     pagecolor="#ffffff"
     bordercolor="#666666"
     borderopacity="1"
     objecttolerance="10"
     gridtolerance="10"
     guidetolerance="10"
     inkscape:pageopacity="0"
     inkscape:pageshadow="2"
     inkscape:window-width="1600"
     inkscape:window-height="848"
     id="namedview4"
     showgrid="false"
     inkscape:zoom="0.21225801"
     inkscape:cx="40.94324"
     inkscape:cy="618.90756"
     inkscape:window-x="0"
     inkscape:window-y="28"
     inkscape:window-maximized="1"
     inkscape:current-layer="g14"
     inkscape:document-rotation="0" /><g
     id="g10"
     inkscape:groupmode="layer"
     inkscape:label="meter-4960149"
     transform="matrix(1.3333333,0,0,-1.3333333,0,2560)"><g
       id="g12"
       transform="matrix(1.2730418,0,0,1.2730418,-226.01205,170.30167)"><g
         id="g14"
         clip-path="url(#clipPath18)"><g
           id="g20"
           transform="translate(1305.7402,1192.8687)"><path
             d="m 0,0 c -4.546,3.113 -9.129,5.966 -13.752,8.983 -2.54,1.662 -5.1,2.648 -7.658,4.648 h -0.02 c -3.151,2 -6.322,4.234 -9.511,6.163 -6.417,3.858 -12.873,7.761 -19.424,11.428 -4.756,2.654 -9.551,5.322 -14.364,7.862 -5.424,2.865 -10.906,5.698 -16.425,8.411 5.519,-2.713 11.001,-5.488 16.425,-8.353 4.813,-2.54 9.608,-5.151 14.364,-7.806 6.551,-3.667 13.007,-7.445 19.424,-11.304 3.189,-1.948 6.36,-3.913 9.511,-5.9 0,-0.019 0,-0.018 0.02,10e-4 2.558,-1.624 5.118,-3.266 7.658,-4.908 C -9.129,6.207 -4.546,3.151 0,0 Z"
             style="fill:none;stroke:#000000;stroke-width:1;stroke-linecap:butt;stroke-linejoin:miter;stroke-miterlimit:10;stroke-dasharray:none;stroke-opacity:1"
             id="path22" /></g><g
           id="g24"
           transform="translate(512.2041,827.2422)"><path
             d="m 0,0 c -0.039,-0.114 -0.788,-0.21 -0.845,-0.324 -20.418,-51.837 -32.359,-108.564 -32.359,-167.658 v -1.26 h -186 v 1.26 c 0,81.155 14.58,158.834 41.817,230.4 0.878,2.311 2.296,4.584 2.296,6.876 L -0.375,0.02 Z"
             style="fill:#31af1b;fill-opacity:1;fill-rule:nonzero;stroke:none"
             id="path26" /></g><g
           id="g28"
           transform="translate(766.2305,1083.5034)"><path
             d="m 0,0 c -0.039,0 -0.077,-0.019 -0.115,-0.038 -57.318,-23.417 -108.887,-57.93 -151.881,-101.095 L -284.968,31.839 c 32.126,32.432 67.67,61.482 106.023,86.465 11.306,7.353 22.862,14.439 34.627,21.105 4.718,2.655 9.474,5.272 14.249,7.831 4.794,2.54 9.607,5.042 14.458,7.487 14.573,7.277 29.452,14.057 44.617,20.265 0.019,0 0.019,0.019 0.038,0.019 z"
             style="fill:#bde051;fill-opacity:1;fill-rule:nonzero;stroke:none"
             id="path30" /></g><g
           id="g32"
           transform="translate(938,1306.2256)"><path
             d="m 0,0 v -189.087 c -63,0 -118.889,-11.861 -172.177,-33.635 l -70.752,175.011 c 4.412,1.795 8.926,3.552 13.376,5.252 2.044,0.783 4.157,1.547 6.22,2.33 2.407,0.879 4.839,1.757 7.265,2.636 2.998,1.07 6.01,2.12 9.027,3.152 4.833,1.642 9.69,3.227 14.561,4.775 4.889,1.527 9.801,2.998 14.729,4.431 7.392,2.139 14.842,4.144 22.348,6.016 5.005,1.242 10.028,2.426 15.07,3.572 12.606,2.807 25.366,5.271 38.258,7.353 2.693,0.439 5.386,0.84 8.098,1.241 1.949,0.287 3.897,0.574 5.845,0.841 0.42,0.057 0.821,0.114 1.241,0.153 1.891,0.267 3.802,0.535 5.692,0.764 2.77,0.362 5.539,0.706 8.328,1.012 3.266,0.382 6.532,0.726 9.817,1.051 5.252,0.515 10.524,0.974 15.815,1.356 5.29,0.401 10.192,0.725 15.502,0.993 C -21.08,-0.268 -11,0 0,0"
             style="fill:#e8e858;fill-opacity:1;fill-rule:nonzero;stroke:none"
             id="path34" /></g><g
           id="g36"
           transform="translate(1181.3633,1259.0669)"><path
             d="m 0,0 -70.593,-174.896 c -0.038,0.02 -0.019,0.123 -0.057,0.123 -52.869,21.257 -110.549,32.706 -170.943,32.706 h -1.77 v 188 h 1.77 C -156.159,45.933 -74.604,30.101 0,0"
             style="fill:#e5bc38;fill-opacity:1;fill-rule:nonzero;stroke:none"
             id="path38" /></g><g
           id="g40"
           transform="translate(1305.7402,1192.8687)"><path
             d="m 0,0 c -4.546,3.113 -9.129,5.966 -13.752,8.983 -2.54,1.662 -5.1,2.648 -7.658,4.648 h -0.02 c -3.151,2 -6.322,4.234 -9.511,6.163 -6.417,3.858 -12.873,7.761 -19.424,11.428 -4.756,2.654 -9.551,5.322 -14.364,7.862 -5.424,2.865 -10.906,5.698 -16.425,8.411 5.519,-2.713 11.001,-5.488 16.425,-8.353 4.813,-2.54 9.608,-5.151 14.364,-7.806 6.551,-3.667 13.007,-7.445 19.424,-11.304 3.189,-1.948 6.36,-3.913 9.511,-5.9 0,-0.019 0,-0.018 0.02,10e-4 2.558,-1.624 5.118,-3.266 7.658,-4.908 C -9.129,6.207 -4.546,3.151 0,0 Z"
             style="fill:none;stroke:#000000;stroke-width:1;stroke-linecap:butt;stroke-linejoin:miter;stroke-miterlimit:10;stroke-dasharray:none;stroke-opacity:1"
             id="path42" /></g><g
           id="g44"
           transform="translate(1585,659.2598)"><path
             d="M 0,0 V -1.26 H -186 V 0 c 0,59.343 -11.706,116.012 -32.678,168.059 -0.018,0.057 -0.322,0.115 -0.322,0.171 v 0.02 c -2,2.388 -1.547,4.794 -2.54,7.162 0,0.02 0.144,0.02 0.144,0.038 l 0.157,0.038 173.489,72.485 c 1.49,-3.535 1.75,-7.087 3.75,-10.659 v -0.018 C -15,163.818 0,83.771 0,0"
             style="fill:#d36207;fill-opacity:1;fill-rule:nonzero;stroke:none"
             id="path46" /></g><g
           id="g48"
           transform="translate(939.5,1305)"><path
             d="M 0,0 V 2"
             style="fill:none;stroke:#000000;stroke-width:1;stroke-linecap:butt;stroke-linejoin:miter;stroke-miterlimit:10;stroke-dasharray:none;stroke-opacity:1"
             id="path50" /></g><g
           id="g52"
           transform="translate(1396.999,1116.3931)"><path
             d="m 0,0 c 0.076,-0.076 0.134,-0.133 0.21,-0.21 l -132.915,-132.915 c -0.019,0.038 -0.076,0.096 -0.114,0.134 -43.452,43.394 -95.48,77.812 -153.41,101.075 l 70.593,175.202 c 0.019,0 0.019,-0.019 0.038,-0.019 12.759,-5.138 25.307,-10.677 37.646,-16.579 1.852,-0.878 3.686,-1.775 5.539,-2.692 5.519,-2.713 11.001,-5.52 16.426,-8.385 4.812,-2.541 9.607,-5.157 14.363,-7.812 6.551,-3.667 13.007,-7.922 19.424,-11.779 3.189,-1.93 6.36,-5.413 9.512,-6.413 h 0.019 c 2.559,-2 5.118,-2.736 7.658,-4.398 4.623,-3.018 9.206,-5.847 13.752,-8.96 1.509,-1.032 3.019,-1.969 4.528,-3.039 5.615,-3.915 11.172,-7.888 16.654,-11.976 C -45.113,42.498 -21.545,22.051 0.439,-0.009 0.439,-0.009 0,0.019 0,0"
             style="fill:#e2b433;fill-opacity:1;fill-rule:nonzero;stroke:none"
             id="path54" /></g><g
           id="g56"
           transform="translate(1397.4961,1116.4697)"><path
             d="M 0,0 -0.058,-0.058 -0.287,-0.287"
             style="fill:none;stroke:#000000;stroke-width:1;stroke-linecap:butt;stroke-linejoin:miter;stroke-miterlimit:10;stroke-dasharray:none;stroke-opacity:1"
             id="path58" /></g><g
           id="g60"
           transform="translate(614.2349,982.3701)"><path
             d="m 0,0 -0.077,-0.076 c -43.738,-43.872 -78.652,-96.435 -101.82,-154.994 l -0.02,0.018 -0.076,0.038 -174.171,69.218 c 0.096,0.268 0.211,0.516 0.326,0.783 22.327,56.517 52.352,109.117 88.832,156.542 4.661,6.074 9.455,12.033 14.363,17.915 1.356,1.624 2.712,3.247 4.088,4.871 0.783,0.916 1.547,1.833 2.33,2.75 1.337,1.566 2.674,3.113 4.03,4.661 0.191,0.229 0.401,0.458 0.592,0.687 0.268,0.325 0.554,0.63 0.821,0.955 0.095,0.095 0.172,0.21 0.268,0.306 1.814,2.062 3.629,4.106 5.462,6.15 l 0.038,0.038 c 0.344,0.363 0.669,0.745 0.993,1.108 2.216,2.464 4.451,4.908 6.724,7.353 1.146,1.241 2.33,2.483 3.495,3.724 1.165,1.242 2.349,2.483 3.533,3.706 2.369,2.464 4.737,4.89 7.144,7.315 0.019,0.019 0.019,0.019 0.038,0.019 z"
             style="fill:#a1db3e;fill-opacity:1;fill-rule:nonzero;stroke:none"
             id="path62" /></g><g
           id="g64"
           transform="translate(695.2749,1258.5142)"><path
             d="M 0,0 V 0.019 L -0.038,0.096"
             style="fill:none;stroke:#000000;stroke-width:1;stroke-linecap:butt;stroke-linejoin:miter;stroke-miterlimit:10;stroke-dasharray:none;stroke-opacity:1"
             id="path66" /></g><g
           id="g68"
           transform="translate(1181.4014,1259.7749)"><path
             d="M 0,0 -0.038,-0.096"
             style="fill:none;stroke:#000000;stroke-width:1;stroke-linecap:butt;stroke-linejoin:miter;stroke-miterlimit:10;stroke-dasharray:none;stroke-opacity:1"
             id="path70" /></g><g
           id="g72"
           transform="translate(1537.9746,907.2324)"><path
             d="m 0,0 -174.133,-72.484 -0.076,-0.038 c -15.452,37.722 -36.022,72.884 -60.756,104.743 -6.437,8.308 -13.18,16.387 -20.188,24.237 -3.495,3.916 -7.068,7.774 -10.697,11.575 -2.578,2.693 -5.195,5.367 -7.831,8.003 l 132.062,132.915 c 36.69,-36.825 68.644,-78.042 94.644,-122.812 V 86.12 c 6,-4.125 6.603,-8.289 9.086,-12.472 0.364,-0.592 1.364,-1.203 1.707,-1.795 C -23.041,48.761 -10.505,24.771 0,0"
             style="fill:#d8951e;fill-opacity:1;fill-rule:nonzero;stroke:none"
             id="path74" /></g><g
           id="g76"
           transform="translate(1031.4561,658)"><path
             d="m 0,0 h -185.278 c 0,41 26.507,75.696 63.271,87.876 6.081,2.027 12.438,3.421 19,4.125 3.402,0.395 6.855,0.607 10.36,0.607 C -41.471,92.608 0,52 0,0"
             style="fill:#6d6d6d;fill-opacity:1;fill-rule:nonzero;stroke:none"
             id="path78" /></g><g
           id="g80"
           transform="translate(1617,659.25)"><path
             d="M 0,0 V -1.25 H -37 V 0 c 0,83.155 -14.824,162.613 -43.814,235.568 0,3.545 -1.948,7.072 -3.426,10.579 -10.371,24.59 -21.753,48.403 -34.779,71.325 -2.71,4.758 -5.472,9.48 -8.308,14.181 -26.847,44.535 -58.945,85.563 -95.478,122.192 -21.841,21.917 -45.228,42.222 -70.027,60.764 -5.441,4.058 -10.945,8.058 -16.519,11.945 -1.498,1.061 -2.989,2.104 -4.487,3.128 -4.512,3.128 -9.058,6.162 -13.647,9.157 -2.522,1.631 -5.06,3.261 -7.619,4.872 -3.128,1.973 -6.275,3.925 -9.442,5.859 -6.37,3.83 -12.777,7.584 -19.28,11.224 -4.722,2.635 -9.48,5.232 -14.258,7.754 -5.384,2.844 -10.825,5.612 -16.305,8.305 -1.839,0.909 -3.659,1.8 -5.498,2.672 -12.247,5.859 -24.704,11.357 -37.368,16.457 -0.019,0 -0.019,-0.708 -0.038,-0.708 -74.055,29.879 -155.011,45.476 -239.814,45.476 h -0.949 c -10.693,0 -21.329,0.462 -31.908,-0.05 -5.27,-0.265 -10.541,-0.224 -15.793,-0.622 -5.252,-0.379 -10.484,-0.653 -15.698,-1.164 -3.261,-0.323 -6.503,-0.573 -9.745,-0.953 -2.768,-0.303 -5.517,-0.599 -8.266,-0.959 -1.877,-0.227 -3.773,-0.47 -5.65,-0.735 -0.417,-0.038 -0.815,-0.084 -1.233,-0.141 -1.933,-0.265 -3.867,-0.525 -5.801,-0.828 -2.692,-0.399 -5.366,-0.794 -8.038,-1.23 -12.798,-2.067 -25.463,-4.51 -37.976,-7.297 -5.005,-1.138 -9.991,-2.313 -14.959,-3.545 -7.451,-1.858 -14.845,-3.849 -22.182,-5.972 -4.891,-1.422 -9.764,-2.881 -14.617,-4.399 -4.835,-1.516 -9.651,-3.09 -14.448,-4.739 -2.995,-1.024 -5.971,-2.067 -8.948,-3.128 -2.408,-0.872 -4.797,-1.744 -7.186,-2.617 -2.047,-0.739 -4.095,-1.517 -6.123,-2.313 -4.418,-1.668 -8.816,-3.412 -13.215,-5.213 -15.054,-6.162 -29.823,-12.874 -44.289,-20.116 -4.815,-2.427 -9.593,-4.892 -14.352,-7.413 -4.74,-2.522 -9.46,-5.119 -14.143,-7.754 -11.679,-6.617 -23.149,-13.575 -34.373,-20.894 -38.108,-24.855 -73.429,-53.635 -105.395,-85.847 -2.388,-2.407 -4.739,-4.815 -7.09,-7.261 -1.176,-1.213 -2.351,-2.446 -3.508,-3.678 -1.156,-1.233 -2.332,-2.465 -3.469,-3.697 -13.916,-14.674 -27.017,-30.276 -39.416,-46.372 -32.732,-42.491 -59.204,-89.21 -81.252,-138.041 -2.129,-4.712 -4.213,-9.446 -6.297,-14.178 -26.563,-60.323 -40.469,-128.094 -45.033,-193.742 -0.094,-1.344 -0.166,-2.689 -0.25,-4.033 C -1319.584,27.897 -1320,13.949 -1320,0 v -1.25 h -35 V 0 c 0,374.69 302.81,678.417 677.5,678.417 C -302.829,678.417 0,374.69 0,0"
             style="fill:#6d6d6d;fill-opacity:1;fill-rule:nonzero;stroke:none"
             id="path82" /></g><g
           id="g84"
           class="gauge-needle"
           transform="matrix(0.95105652,-0.28404844,0.30901699,0.8742112,948.05591,675.21668)"><path
             d="m 0,0 h -20.323 l -28.002,87.876 -91.566,287.498 18.451,5.884 92.115,-289.237 z"
             style="fill:#6d6d6d;fill-opacity:1;fill-rule:nonzero;stroke:none"
             id="path86" /></g></g></g></g></svg>
